<svg width="24" height="27" viewBox="0 0 24 27" fill="none" xmlns="http://www.w3.org/2000/svg">
<path d="M21 7.9999C20.9996 7.64918 20.9071 7.30471 20.7315 7.00106C20.556 6.69742 20.3037 6.44526 20 6.2699L13 2.2699C12.696 2.09437 12.3511 2.00195 12 2.00195C11.6489 2.00195 11.304 2.09437 11 2.2699L4 6.2699C3.69626 6.44526 3.44398 6.69742 3.26846 7.00106C3.09294 7.30471 3.00036 7.64918 3 7.9999V15.9999C3.00036 16.3506 3.09294 16.6951 3.26846 16.9987C3.44398 17.3024 3.69626 17.5545 4 17.7299L11 21.7299C11.304 21.9054 11.6489 21.9979 12 21.9979C12.3511 21.9979 12.696 21.9054 13 21.7299L20 17.7299C20.3037 17.5545 20.556 17.3024 20.7315 16.9987C20.9071 16.6951 20.9996 16.3506 21 15.9999V7.9999Z" stroke="#10b981" stroke-width="2" stroke-linecap="round" stroke-linejoin="round"/>
<path d="M3.30005 7L12 12L20.7001 7" stroke="#10b981" stroke-width="2" stroke-linecap="round" stroke-linejoin="round"/>
<path d="M12 22V12" stroke="#10b981" stroke-width="2" stroke-linecap="round" stroke-linejoin="round"/>
<path d="M21.6967 24.2523C19.0717 26.0475 15.2561 27 11.9749 27C7.37807 27 3.23436 25.427 0.106258 22.812C-0.140615 22.6071 0.0812583 22.3271 0.378131 22.4887C3.76248 24.3042 7.93744 25.4039 12.2562 25.4039C15.1686 25.4039 18.3686 24.8439 21.3154 23.6923C21.7529 23.5076 22.1279 23.9578 21.6967 24.2523ZM22.7904 23.1006C22.4561 22.7023 20.5717 22.9101 19.7186 23.0054C19.4623 23.0342 19.4217 22.8293 19.653 22.6734C21.1561 21.6979 23.6217 21.9779 23.9092 22.304C24.1967 22.6302 23.8279 24.919 22.4248 26.01C22.2092 26.1803 21.9998 26.0908 22.0967 25.8715C22.4154 25.1383 23.1279 23.4932 22.7904 23.1006Z" fill="#10b981"/>
</svg>
